<svg xmlns="http://www.w3.org/2000/svg" width="1120" height="720" viewBox="0 0 1120 720">
  <defs>
    <linearGradient id="bg" x1="0" x2="1" y1="0" y2="1">
      <stop offset="0" stop-color="#fbfaf4"/>
      <stop offset=".6" stop-color="#f2f6f9"/>
      <stop offset="1" stop-color="#ecf4ed"/>
    </linearGradient>
    <filter id="shadow" x="-20%" y="-20%" width="140%" height="140%">
      <feDropShadow dx="0" dy="18" stdDeviation="18" flood-color="#263947" flood-opacity=".12"/>
    </filter>
  </defs>
  <rect width="1120" height="720" rx="36" fill="url(#bg)"/>
  <text x="72" y="86" font-family="Avenir Next, Georgia, serif" font-size="28" font-weight="700" fill="#1e2d35">U.S. data-centre electricity use</text>
  <text x="72" y="122" font-family="Avenir Next, sans-serif" font-size="17" fill="#61717b">LBNL / DOE: historical demand plus 2028 forecast range</text>
  <g stroke="#d9e1e5" stroke-width="1">
    <line x1="130" y1="570" x2="1000" y2="570"/>
    <line x1="130" y1="475" x2="1000" y2="475"/>
    <line x1="130" y1="380" x2="1000" y2="380"/>
    <line x1="130" y1="285" x2="1000" y2="285"/>
    <line x1="130" y1="190" x2="1000" y2="190"/>
  </g>
  <g font-family="Avenir Next, sans-serif" font-size="15" fill="#687780">
    <text x="78" y="575">0</text>
    <text x="62" y="480">150</text>
    <text x="62" y="385">300</text>
    <text x="62" y="290">450</text>
    <text x="62" y="195">600</text>
    <text x="172" y="620">2014</text>
    <text x="522" y="620">2023</text>
    <text x="878" y="620">2028</text>
    <text x="838" y="672">Source: LBNL and U.S. DOE</text>
  </g>
  <path d="M210 533 L560 459 L920 364" fill="none" stroke="#205e74" stroke-width="6" stroke-linecap="round"/>
  <path d="M560 459 L920 203" fill="none" stroke="#d67a35" stroke-width="6" stroke-linecap="round" stroke-dasharray="12 12"/>
  <path d="M920 203 L920 364" stroke="#d67a35" stroke-width="16" stroke-linecap="round" opacity=".28"/>
  <g filter="url(#shadow)" font-family="Avenir Next, sans-serif">
    <circle cx="210" cy="533" r="12" fill="#205e74"/>
    <rect x="148" y="444" width="138" height="70" rx="16" fill="#fffefa"/>
    <text x="170" y="477" font-size="25" font-weight="700" fill="#1e2d35">58 TWh</text>
    <text x="170" y="501" font-size="15" fill="#687780">2014</text>
    <circle cx="560" cy="459" r="12" fill="#205e74"/>
    <rect x="498" y="368" width="154" height="72" rx="16" fill="#fffefa"/>
    <text x="520" y="401" font-size="25" font-weight="700" fill="#1e2d35">176 TWh</text>
    <text x="520" y="425" font-size="15" fill="#687780">2023</text>
    <circle cx="920" cy="364" r="11" fill="#d67a35"/>
    <circle cx="920" cy="203" r="11" fill="#d67a35"/>
    <rect x="780" y="244" width="204" height="82" rx="16" fill="#fffefa"/>
    <text x="804" y="278" font-size="25" font-weight="700" fill="#1e2d35">325–580 TWh</text>
    <text x="804" y="304" font-size="15" fill="#687780">2028 forecast range</text>
  </g>
</svg>
