<svg xmlns="http://www.w3.org/2000/svg" width="1120" height="720" viewBox="0 0 1120 720">
  <defs>
    <linearGradient id="bg" x1="0" x2="1" y1="0" y2="1">
      <stop offset="0" stop-color="#f6fafb"/>
      <stop offset=".55" stop-color="#eef6f4"/>
      <stop offset="1" stop-color="#fff0df"/>
    </linearGradient>
    <linearGradient id="bar" x1="0" x2="0" y1="0" y2="1">
      <stop offset="0" stop-color="#d67a35"/>
      <stop offset="1" stop-color="#1b7f79"/>
    </linearGradient>
    <filter id="shadow" x="-20%" y="-20%" width="140%" height="140%">
      <feDropShadow dx="0" dy="18" stdDeviation="18" flood-color="#293f3c" flood-opacity=".13"/>
    </filter>
  </defs>
  <rect width="1120" height="720" rx="36" fill="url(#bg)"/>
  <text x="72" y="86" font-family="Avenir Next, Georgia, serif" font-size="28" font-weight="700" fill="#18302d">U.S. data-centre power demand</text>
  <text x="72" y="122" font-family="Avenir Next, sans-serif" font-size="17" fill="#60706b">Goldman Sachs Research / Marcus summary, expected capacity and utilization</text>
  <g stroke="#d7e0df" stroke-width="1">
    <line x1="130" y1="570" x2="1000" y2="570"/>
    <line x1="130" y1="470" x2="1000" y2="470"/>
    <line x1="130" y1="370" x2="1000" y2="370"/>
    <line x1="130" y1="270" x2="1000" y2="270"/>
    <line x1="130" y1="170" x2="1000" y2="170"/>
  </g>
  <g font-family="Avenir Next, sans-serif" font-size="15" fill="#687780">
    <text x="80" y="575">0</text>
    <text x="66" y="475">20</text>
    <text x="66" y="375">40</text>
    <text x="66" y="275">60</text>
    <text x="66" y="175">80</text>
    <text x="850" y="672">Source: Goldman Sachs Research</text>
  </g>
  <g filter="url(#shadow)" font-family="Avenir Next, sans-serif">
    <rect x="250" y="415" width="140" height="155" rx="24" fill="url(#bar)" opacity=".82"/>
    <rect x="490" y="365" width="140" height="205" rx="24" fill="url(#bar)" opacity=".9"/>
    <rect x="730" y="240" width="140" height="330" rx="24" fill="url(#bar)"/>
    <text x="282" y="398" font-size="34" font-weight="800" fill="#18302d">31</text>
    <text x="327" y="398" font-size="17" fill="#60706b">GW</text>
    <text x="282" y="620" font-size="18" fill="#60706b">2025</text>
    <text x="522" y="348" font-size="34" font-weight="800" fill="#18302d">41</text>
    <text x="567" y="348" font-size="17" fill="#60706b">GW</text>
    <text x="522" y="620" font-size="18" fill="#60706b">2026</text>
    <text x="762" y="223" font-size="34" font-weight="800" fill="#18302d">66</text>
    <text x="807" y="223" font-size="17" fill="#60706b">GW</text>
    <text x="762" y="620" font-size="18" fill="#60706b">2027</text>
  </g>
</svg>
