<svg xmlns="http://www.w3.org/2000/svg" width="1200" height="675" viewBox="0 0 1200 675">
  <defs>
    <linearGradient id="paper" x1="0" x2="1" y1="0" y2="1">
      <stop offset="0" stop-color="#fcf3e7"/>
      <stop offset=".62" stop-color="#f7efe5"/>
      <stop offset="1" stop-color="#e8f4ef"/>
    </linearGradient>
    <linearGradient id="panel" x1="0" x2="1" y1="0" y2="1">
      <stop offset="0" stop-color="#fffefa"/>
      <stop offset="1" stop-color="#f7fbf8"/>
    </linearGradient>
    <pattern id="grid" width="36" height="36" patternUnits="userSpaceOnUse">
      <path d="M36 0H0V36" fill="none" stroke="#dfd3c3" stroke-width="1" opacity=".5"/>
    </pattern>
    <filter id="shadow" x="-20%" y="-20%" width="140%" height="140%">
      <feDropShadow dx="0" dy="18" stdDeviation="18" flood-color="#715d4e" flood-opacity=".16"/>
    </filter>
    <filter id="soft" x="-20%" y="-20%" width="140%" height="140%">
      <feGaussianBlur stdDeviation="18"/>
    </filter>
  </defs>

  <rect width="1200" height="675" rx="34" fill="url(#paper)"/>
  <rect width="1200" height="675" rx="34" fill="url(#grid)" opacity=".66"/>
  <circle cx="924" cy="146" r="122" fill="#dceee8" opacity=".72"/>
  <circle cx="1036" cy="484" r="152" fill="#f0d7c2" opacity=".42"/>
  <ellipse cx="810" cy="500" rx="265" ry="92" fill="#cfe7df" opacity=".28" filter="url(#soft)"/>

  <text x="72" y="86" font-family="Avenir Next, PingFang SC, sans-serif" font-size="17" font-weight="800" letter-spacing="7" fill="#b54636">ANALYSIS · MODEL ASCENT</text>
  <text x="72" y="154" font-family="Songti SC, Noto Serif CJK SC, serif" font-size="58" font-weight="800" fill="#171b1f">Fable 5 被封禁，</text>
  <text x="72" y="226" font-family="Songti SC, Noto Serif CJK SC, serif" font-size="58" font-weight="800" fill="#171b1f">智谱冲万亿。</text>
  <text x="72" y="302" font-family="Songti SC, Noto Serif CJK SC, serif" font-size="45" font-weight="800" fill="#171b1f">中国模型登顶日</text>
  <text x="72" y="360" font-family="Songti SC, Noto Serif CJK SC, serif" font-size="45" font-weight="800" fill="#171b1f">即将来临？</text>

  <g transform="translate(72 462)" filter="url(#shadow)">
    <rect width="482" height="82" rx="20" fill="#fffefa"/>
    <text x="30" y="38" font-family="PingFang SC, sans-serif" font-size="23" font-weight="800" fill="#273a48">市场先交易“登顶日”</text>
    <text x="30" y="66" font-family="PingFang SC, sans-serif" font-size="16" fill="#66727a">能力、生态、交付决定后半场</text>
  </g>

  <g transform="translate(644 94)">
    <text x="14" y="-18" font-family="Avenir Next, PingFang SC, sans-serif" font-size="13" font-weight="800" letter-spacing="5" fill="#839199">EVENT PRICING BOARD</text>

    <g filter="url(#shadow)">
      <rect x="0" y="0" width="482" height="410" rx="28" fill="url(#panel)" stroke="#eadfce"/>
    </g>
    <path d="M38 96H444M38 204H444M38 312H444" stroke="#eadfce" stroke-width="1.4"/>
    <path d="M174 34V374M326 34V374" stroke="#eadfce" stroke-width="1.4"/>

    <text x="38" y="54" font-family="Avenir Next, PingFang SC, sans-serif" font-size="13" font-weight="900" letter-spacing="4" fill="#b54636">SHOCK</text>
    <text x="190" y="54" font-family="Avenir Next, PingFang SC, sans-serif" font-size="13" font-weight="900" letter-spacing="4" fill="#d18645">MODEL</text>
    <text x="342" y="54" font-family="Avenir Next, PingFang SC, sans-serif" font-size="13" font-weight="900" letter-spacing="4" fill="#1f7887">MARKET</text>

    <text x="38" y="138" font-family="Songti SC, serif" font-size="34" font-weight="800" fill="#1d2429">Fable 5</text>
    <text x="38" y="168" font-family="PingFang SC, sans-serif" font-size="17" fill="#66727a">访问暂停</text>
    <text x="38" y="192" font-family="Avenir Next, PingFang SC, sans-serif" font-size="13" font-weight="900" letter-spacing="3" fill="#b54636">JUN 12</text>

    <text x="190" y="138" font-family="Songti SC, serif" font-size="34" font-weight="800" fill="#1d2429">GLM-5.2</text>
    <text x="190" y="168" font-family="PingFang SC, sans-serif" font-size="17" fill="#66727a">开放权重</text>
    <text x="190" y="192" font-family="Avenir Next, PingFang SC, sans-serif" font-size="13" font-weight="900" letter-spacing="3" fill="#d18645">1M CONTEXT</text>

    <text x="342" y="138" font-family="Songti SC, serif" font-size="42" font-weight="800" fill="#1d2429">万亿</text>
    <text x="342" y="168" font-family="PingFang SC, sans-serif" font-size="17" fill="#66727a">预期升温</text>
    <text x="342" y="192" font-family="Avenir Next, PingFang SC, sans-serif" font-size="13" font-weight="900" letter-spacing="3" fill="#1f7887">VALUATION</text>

    <path d="M44 292C88 282 116 264 150 246C198 221 246 232 282 214C332 189 372 154 434 142" fill="none" stroke="#24343d" stroke-width="2.2" opacity=".58"/>
    <path d="M44 292C88 282 116 264 150 246C198 221 246 232 282 214C332 189 372 154 434 142" fill="none" stroke="#b54636" stroke-width="5" stroke-linecap="round" stroke-dasharray="1 18"/>
    <circle cx="44" cy="292" r="6" fill="#b54636"/>
    <circle cx="282" cy="214" r="6" fill="#d18645"/>
    <circle cx="434" cy="142" r="6" fill="#1f7887"/>

    <g transform="translate(104 222) rotate(-10)">
      <rect width="154" height="58" rx="9" fill="#fffefa" fill-opacity=".78" stroke="#b54636" stroke-width="5"/>
      <text x="31" y="40" font-family="PingFang SC, sans-serif" font-size="34" font-weight="900" fill="#b54636">封禁</text>
    </g>

    <g transform="translate(38 336)">
      <rect width="406" height="44" rx="14" fill="#f5efe5" stroke="#e4d5c4"/>
      <text x="24" y="29" font-family="PingFang SC, sans-serif" font-size="17" font-weight="900" fill="#26343d">后半场</text>
      <text x="108" y="29" font-family="PingFang SC, sans-serif" font-size="17" fill="#66727a">能力验证</text>
      <circle cx="192" cy="24" r="4" fill="#b54636"/>
      <text x="216" y="29" font-family="PingFang SC, sans-serif" font-size="17" fill="#66727a">生态接住</text>
      <circle cx="300" cy="24" r="4" fill="#d18645"/>
      <text x="324" y="29" font-family="PingFang SC, sans-serif" font-size="17" fill="#66727a">交付落地</text>
    </g>

    <text x="8" y="456" font-family="Avenir Next, PingFang SC, sans-serif" font-size="14" letter-spacing="3" fill="#9a8a7b">SOURCE-BOUND · NO DECORATIVE METAPHOR</text>
  </g>

  <text x="72" y="610" font-family="Avenir Next, PingFang SC, sans-serif" font-size="16" letter-spacing="4" fill="#a28474">SOURCE-BOUND · WECHAT READY · HUMAN RHYTHM</text>
</svg>
